<svg width="91" height="90" viewBox="0 0 91 90" fill="none" xmlns="http://www.w3.org/2000/svg">
<path fill-rule="evenodd" clip-rule="evenodd" d="M48.4054 20.0573C44.2471 19.6869 40.8637 17.8322 39.3104 14.6202C37.6521 11.191 38.4295 6.93777 40.9972 3.02683C18.4279 5.37585 1.59881 25.0202 3.15223 47.6022C4.74032 70.6882 24.9393 88.1021 48.268 86.4974C71.5967 84.8926 89.2209 64.8767 87.6328 41.7907C87.3731 38.0157 86.6158 34.3923 85.4285 30.9789C82.5471 34.8571 78.5905 36.8541 74.6016 35.8909C72.3295 35.3422 70.3352 33.9027 68.7428 31.8483C64.6235 35.0137 59.7571 36.0381 55.6043 34.0944C50.8624 31.8749 48.275 26.3582 48.4054 20.0573Z" fill="#0000FF"/>
<path fill-rule="evenodd" clip-rule="evenodd" d="M44.5346 85.2228C68.0259 85.2228 87.0693 66.749 87.0693 43.9604C87.0693 30.6077 80.5313 18.7364 70.3913 11.1947C70.4296 11.2232 70.4678 11.2517 70.506 11.2803L70.5056 11.2808C77.4891 16.5115 82.7495 23.802 85.3199 32.214C82.1207 36.4931 77.7037 38.6069 73.4869 37.2864C71.2763 36.5942 69.4012 35.0461 67.9655 32.9212C63.6745 35.7511 58.7901 36.4283 54.8138 34.2393C50.2734 31.7396 48.089 26.1479 48.6468 19.9699C44.5579 19.3253 41.3367 17.2756 40.0185 14.0169C38.611 10.5371 39.6702 6.41254 42.4778 2.74536C19.9418 3.78623 2 21.8407 2 43.9604C2 66.749 21.0434 85.2228 44.5346 85.2228Z" fill="#00FF00"/>
<path fill-rule="evenodd" clip-rule="evenodd" d="M46 84.0286C68.6437 84.0286 87 65.4419 87 42.514C87 29.1305 80.7454 17.2261 71.0344 9.63424L71.034 9.63471C77.7655 14.8974 82.8362 22.2324 85.3139 30.6958C82.23 35.0011 77.9724 37.1278 73.9078 35.7993C71.7769 35.1028 69.9694 33.5452 68.5855 31.4074C64.4494 34.2546 59.7413 34.9359 55.9084 32.7335C51.5317 30.2186 49.4262 24.5927 49.9639 18.3769C46.0225 17.7284 42.9175 15.6661 41.6469 12.3875C40.2902 8.8865 41.3111 4.73673 44.0175 1.04713C44.6042 1.01885 45.1941 1.00306 45.7869 1C23.2413 1.11618 5 19.6581 5 42.514C5 65.4419 23.3563 84.0286 46 84.0286Z" fill="#FF0000"/>
<path fill-rule="evenodd" clip-rule="evenodd" d="M45.6104 85.4367C68.5075 85.4367 87.0693 66.9081 87.0693 44.0519C87.0693 29.7668 79.8186 17.1721 68.7905 9.73494C69.5188 10.2261 70.2306 10.7397 70.9249 11.2749L70.9245 11.2753C77.7314 16.5216 82.8588 23.8336 85.3642 32.2706C82.2459 36.5625 77.9406 38.6825 73.8305 37.3581C71.6758 36.6639 69.8481 35.1111 68.4487 32.98C64.2663 35.8183 59.5054 36.4975 55.6297 34.3019C51.2041 31.7949 49.0749 26.1866 49.6186 19.9902C45.6332 19.3437 42.4934 17.2879 41.2086 14.0195C39.8367 10.5295 40.8691 6.39266 43.6057 2.7146C21.6397 3.75852 4.15161 21.8666 4.15161 44.0519C4.15161 66.9081 22.7134 85.4367 45.6104 85.4367Z" fill="black"/>
</svg>
