<svg width="467" height="414" viewBox="0 0 467 414" fill="none" xmlns="http://www.w3.org/2000/svg">
<g filter="url(#filter0_i_2719_140)">
<g filter="url(#filter1_d_2719_140)">
<path fill-rule="evenodd" clip-rule="evenodd" d="M231.328 74.6245C212.411 71.5221 197.508 61.6578 191.409 45.9747C185.897 31.8008 188.561 15.4039 197.385 0C101.017 7.08949 25 88.8399 25 188.645C25 293.106 108.275 377.789 211 377.789C313.725 377.789 397 293.106 397 188.645C397 173.36 395.217 158.498 391.851 144.263C378.348 157.455 361.999 163.092 346.253 157.963C336.026 154.631 327.35 147.181 320.708 136.955C300.856 150.574 278.257 153.833 259.861 143.298C238.854 131.268 228.747 104.357 231.328 74.6245Z" fill="#E99543"/>
</g>
<path d="M191.212 85.246C186.842 97.2698 174.121 102.839 162.8 97.6856C151.479 92.532 145.845 78.607 150.215 66.5832C154.586 54.5594 167.306 48.9899 178.627 54.1435C189.948 59.2971 195.583 73.2222 191.212 85.246Z" fill="#693502"/>
<path d="M191.212 85.246C186.842 97.2698 174.121 102.839 162.8 97.6856C151.479 92.532 145.845 78.607 150.215 66.5832C154.586 54.5594 167.306 48.9899 178.627 54.1435C189.948 59.2971 195.583 73.2222 191.212 85.246Z" stroke="black"/>
<path d="M324.914 291.065C321.006 301.817 309.632 306.797 299.509 302.188C289.387 297.58 284.348 285.129 288.256 274.378C292.164 263.627 303.539 258.647 313.661 263.255C323.784 267.863 328.822 280.314 324.914 291.065Z" fill="#693502"/>
<path d="M324.914 291.065C321.006 301.817 309.632 306.797 299.509 302.188C289.387 297.58 284.348 285.129 288.256 274.378C292.164 263.627 303.539 258.647 313.661 263.255C323.784 267.863 328.822 280.314 324.914 291.065Z" stroke="black"/>
<path d="M254.734 192.655C250.826 203.406 239.452 208.386 229.329 203.778C219.206 199.17 214.168 186.719 218.076 175.968C221.984 165.217 233.358 160.237 243.481 164.845C253.604 169.453 258.642 181.904 254.734 192.655Z" fill="#693502"/>
<path d="M254.734 192.655C250.826 203.406 239.452 208.386 229.329 203.778C219.206 199.17 214.168 186.719 218.076 175.968C221.984 165.217 233.358 160.237 243.481 164.845C253.604 169.453 258.642 181.904 254.734 192.655Z" stroke="black"/>
<path d="M150.359 242.506C145.742 255.206 133.143 261.469 122.218 256.496C111.292 251.522 106.178 237.195 110.794 224.496C115.41 211.796 128.009 205.533 138.935 210.506C149.86 215.48 154.975 229.807 150.359 242.506Z" fill="#693502"/>
<path d="M150.359 242.506C145.742 255.206 133.143 261.469 122.218 256.496C111.292 251.522 106.178 237.195 110.794 224.496C115.41 211.796 128.009 205.533 138.935 210.506C149.86 215.48 154.975 229.807 150.359 242.506Z" stroke="black"/>
<path d="M204.062 342.356C200.154 353.107 188.78 358.087 178.657 353.479C168.534 348.871 163.496 336.419 167.404 325.668C171.312 314.917 182.687 309.937 192.809 314.545C202.932 319.153 207.97 331.605 204.062 342.356Z" fill="#693502"/>
<path d="M204.062 342.356C200.154 353.107 188.78 358.087 178.657 353.479C168.534 348.871 163.496 336.419 167.404 325.668C171.312 314.917 182.687 309.937 192.809 314.545C202.932 319.153 207.97 331.605 204.062 342.356Z" stroke="black"/>
<path fill-rule="evenodd" clip-rule="evenodd" d="M27.3862 219.048C25.816 209.158 25 199.012 25 188.673C25 179.7 25.6145 170.873 26.8032 162.233C29.4566 162.529 32.1273 163.235 34.7382 164.382C48.8511 170.584 55.8751 187.341 50.4266 201.81C46.5526 212.098 37.4162 218.46 27.3862 219.048Z" fill="#693502"/>
<path fill-rule="evenodd" clip-rule="evenodd" d="M392.421 230.379C395.391 216.961 396.959 203.003 396.959 188.673C396.959 183.693 396.77 178.759 396.398 173.876C385.474 173.539 375.197 180.065 371.024 191.146C365.576 205.615 372.6 222.372 386.713 228.574C388.594 229.401 390.507 229.998 392.421 230.379Z" fill="#693502"/>
<ellipse cx="438" cy="222.1" rx="20.0695" ry="21.8393" transform="rotate(5.29704 438 222.1)" fill="black"/>
<ellipse cx="308.93" cy="91.5013" rx="23" ry="21.9708" transform="rotate(5.29704 308.93 91.5013)" fill="black"/>
<circle cx="186" cy="310.501" r="25" fill="black"/>
<rect x="434" y="222.501" width="9" height="83" fill="black"/>
<rect x="311" y="102.161" width="9" height="52.196" transform="rotate(-31.1833 311 102.161)" fill="black"/>
<rect x="181" y="302.501" width="9" height="83" fill="black"/>
<rect x="167" y="344.97" width="7.59371" height="22.3295" transform="rotate(-36.0514 167 344.97)" fill="black"/>
<rect x="190.275" y="368.118" width="7.59371" height="28.2442" transform="rotate(-145.732 190.275 368.118)" fill="black"/>
<rect x="22.2754" y="273.118" width="7.59371" height="28.2442" transform="rotate(-145.732 22.2754 273.118)" fill="black"/>
<rect x="23.1289" y="275.231" width="7.59371" height="28.2442" transform="rotate(-122.937 23.1289 275.231)" fill="black"/>
<rect x="422.07" y="283.012" width="7.59371" height="28.2442" transform="rotate(-131.888 422.07 283.012)" fill="black"/>
<rect x="299.215" y="134.338" width="7.59371" height="28.2442" transform="rotate(-115.046 299.215 134.338)" fill="black"/>
<rect x="306.556" y="141.988" width="7.59371" height="29.6282" transform="rotate(-122.949 306.556 141.988)" fill="black"/>
<rect x="410.879" y="261.003" width="7.59371" height="28.4629" transform="rotate(-83.5641 410.879 261.003)" fill="black"/>
<rect x="437" y="301.748" width="5.64475" height="28.9122" transform="rotate(-12.7624 437 301.748)" fill="black"/>
<rect x="335" y="134.571" width="5.64475" height="28.9122" transform="rotate(-32.9456 335 134.571)" fill="black"/>
<rect x="337.608" y="138.501" width="5.78512" height="30.0831" transform="rotate(4.97427 337.608 138.501)" fill="black"/>
<rect x="433.608" y="298.501" width="5.78512" height="30.0831" transform="rotate(4.97427 433.608 298.501)" fill="black"/>
<rect x="184" y="381.748" width="5.64475" height="32.0827" transform="rotate(-12.7624 184 381.748)" fill="black"/>
<rect x="182.059" y="377.501" width="5.78512" height="35.2773" transform="rotate(4.97427 182.059 377.501)" fill="black"/>
<circle cx="25" cy="226.501" r="25" fill="black"/>
<rect x="16" y="220.501" width="9" height="83" fill="black"/>
<rect x="19" y="297.748" width="5.64475" height="32.0827" transform="rotate(-12.7624 19 297.748)" fill="black"/>
<rect x="17.0586" y="293.501" width="5.78512" height="35.2773" transform="rotate(4.97427 17.0586 293.501)" fill="black"/>
<rect x="314.431" y="135.452" width="1.83534" height="219.705" transform="rotate(-31.2191 314.431 135.452)" fill="black"/>
<rect x="372.737" y="229.633" width="1.83534" height="39.6058" transform="rotate(-133.603 372.737 229.633)" fill="black"/>
<rect x="355.266" y="200.145" width="1.83534" height="39.6058" transform="rotate(-133.603 355.266 200.145)" fill="black"/>
<rect x="364.266" y="215.145" width="1.83534" height="39.6058" transform="rotate(-133.603 364.266 215.145)" fill="black"/>
<rect x="423.737" y="312.633" width="1.83534" height="39.6058" transform="rotate(-133.603 423.737 312.633)" fill="black"/>
<rect x="406.266" y="283.145" width="1.83534" height="39.6058" transform="rotate(-133.603 406.266 283.145)" fill="black"/>
<rect x="415.266" y="298.145" width="1.83534" height="39.6058" transform="rotate(-133.603 415.266 298.145)" fill="black"/>
<rect x="396.737" y="270.633" width="1.83534" height="39.6058" transform="rotate(-133.603 396.737 270.633)" fill="black"/>
<rect x="379.266" y="241.145" width="1.83534" height="39.6058" transform="rotate(-133.603 379.266 241.145)" fill="black"/>
<rect x="388.266" y="256.145" width="1.83534" height="39.6058" transform="rotate(-133.603 388.266 256.145)" fill="black"/>
<rect x="345.737" y="186.633" width="1.83534" height="39.6058" transform="rotate(-133.603 345.737 186.633)" fill="black"/>
<rect x="328.266" y="157.145" width="1.83534" height="39.6058" transform="rotate(-133.603 328.266 157.145)" fill="black"/>
<rect x="337.266" y="172.145" width="1.83534" height="39.6058" transform="rotate(-133.603 337.266 172.145)" fill="black"/>
<rect x="351" y="122.452" width="1.83534" height="219.705" transform="rotate(-31.2191 351 122.452)" fill="black"/>
<path d="M302.5 141.501C281.702 139.095 275.03 133.58 270 118.001L294.5 110.501L310.5 118.001L302.5 141.501Z" fill="#E99543"/>
</g>
<defs>
<filter id="filter0_i_2719_140" x="0" y="0" width="466.445" height="417.147" filterUnits="userSpaceOnUse" color-interpolation-filters="sRGB">
<feFlood flood-opacity="0" result="BackgroundImageFix"/>
<feBlend mode="normal" in="SourceGraphic" in2="BackgroundImageFix" result="shape"/>
<feColorMatrix in="SourceAlpha" type="matrix" values="0 0 0 0 0 0 0 0 0 0 0 0 0 0 0 0 0 0 127 0" result="hardAlpha"/>
<feOffset dy="4"/>
<feGaussianBlur stdDeviation="2"/>
<feComposite in2="hardAlpha" operator="arithmetic" k2="-1" k3="1"/>
<feColorMatrix type="matrix" values="0 0 0 0 0 0 0 0 0 0 0 0 0 0 0 0 0 0 0.25 0"/>
<feBlend mode="normal" in2="shape" result="effect1_innerShadow_2719_140"/>
</filter>
<filter id="filter1_d_2719_140" x="21" y="0" width="380" height="385.789" filterUnits="userSpaceOnUse" color-interpolation-filters="sRGB">
<feFlood flood-opacity="0" result="BackgroundImageFix"/>
<feColorMatrix in="SourceAlpha" type="matrix" values="0 0 0 0 0 0 0 0 0 0 0 0 0 0 0 0 0 0 127 0" result="hardAlpha"/>
<feOffset dy="4"/>
<feGaussianBlur stdDeviation="2"/>
<feComposite in2="hardAlpha" operator="out"/>
<feColorMatrix type="matrix" values="0 0 0 0 0 0 0 0 0 0 0 0 0 0 0 0 0 0 0.25 0"/>
<feBlend mode="normal" in2="BackgroundImageFix" result="effect1_dropShadow_2719_140"/>
<feBlend mode="normal" in="SourceGraphic" in2="effect1_dropShadow_2719_140" result="shape"/>
</filter>
</defs>
</svg>
