<svg width="90" height="90" viewBox="0 0 90 90" fill="none" xmlns="http://www.w3.org/2000/svg">
<path fill-rule="evenodd" clip-rule="evenodd" d="M47.6468 18.2118C43.5579 17.5671 40.3367 15.5175 39.0185 12.2587C37.6126 8.78303 38.6677 4.66399 41.4681 1C18.4697 1.54908 0 19.807 0 42.2497C0 65.0383 19.0434 83.5122 42.5346 83.5122C66.0259 83.5122 85.0693 65.0383 85.0693 42.2497C85.0693 38.4888 84.5506 34.8454 83.5789 31.3831C80.4581 35.0332 76.3869 36.7495 72.4869 35.5283C70.2763 34.8361 68.4012 33.2879 66.9655 31.1631C62.6745 33.993 57.7901 34.6702 53.8138 32.4812C49.2734 29.9815 47.089 24.3898 47.6468 18.2118Z" fill="#00FF00"/>
<path fill-rule="evenodd" clip-rule="evenodd" d="M51.9695 28.6217C48.2558 28.3012 45.2359 26.6777 43.8521 23.8615C42.3748 20.855 43.0737 17.1228 45.3712 13.6889C25.2107 15.7747 10.1582 33.0275 11.5209 52.8373C12.9141 73.0895 30.9361 88.345 51.7742 86.9116C72.6124 85.4781 88.3756 67.8984 86.9825 47.6463C86.7547 44.3345 86.0822 41.1563 85.0254 38.1629C82.4476 41.5685 78.9115 43.3248 75.3498 42.4841C73.321 42.0053 71.5413 40.7445 70.1213 38.9439C66.4386 41.7255 62.091 42.6296 58.384 40.9288C54.1511 38.9868 51.8461 34.1497 51.9695 28.6217Z" fill="#0000FF"/>
<path fill-rule="evenodd" clip-rule="evenodd" d="M53.3268 14.602C49.8661 14.0551 47.1398 12.3162 46.0242 9.55166C44.8342 6.60295 45.7273 3.10843 48.0975 0C28.6323 0.465696 13 15.955 13 34.9946C13 54.3275 29.1177 70 49 70C68.8823 70 85 54.3275 85 34.9946C85 31.8041 84.561 28.7132 83.7386 25.776C81.0973 28.8726 77.6516 30.3287 74.3507 29.2926C72.4798 28.7054 70.8927 27.392 69.6776 25.5894C66.0459 27.9901 61.9119 28.5646 58.5465 26.7075C54.7035 24.5869 52.8547 19.8432 53.3268 14.602Z" fill="#FF0000"/>
<path fill-rule="evenodd" clip-rule="evenodd" d="M48.5907 20.8027C44.9451 20.2113 42.073 18.3308 40.8977 15.3411C39.7695 12.4709 40.4189 9.12249 42.3806 6.03076C22.1514 6.83912 6 23.465 6 43.8565C6 64.764 22.9792 81.713 43.9242 81.713C64.8691 81.713 81.8484 64.764 81.8484 43.8565C81.8484 40.1674 81.3198 36.6017 80.3341 33.2305C77.5927 36.3422 74.0944 37.7713 70.7384 36.6899C68.7674 36.0548 67.0955 34.6345 65.8154 32.685C61.9896 35.2813 57.6346 35.9026 54.0893 33.8943C50.041 31.601 48.0934 26.4708 48.5907 20.8027Z" fill="black"/>
</svg>
