<svg width="1800" height="1800" viewBox="0 0 1800 1800" fill="none" xmlns="http://www.w3.org/2000/svg">
<rect width="1800" height="1800" fill="black"/>
<path d="M1641 893C1641 1265.24 1328.94 1567 944 1567C559.057 1567 247 1265.24 247 893C247 520.76 559.057 219 944 219C1328.94 219 1641 520.76 1641 893Z" fill="#8C5219"/>
<path d="M561.5 1022L938 1204.5" stroke="black" stroke-width="36"/>
<path fill-rule="evenodd" clip-rule="evenodd" d="M1323.21 327.387C1460.69 413.756 1564.71 545.725 1612.35 701.128C1559.93 771.026 1487.55 805.553 1418.45 783.984C1310.32 750.233 1251.16 591.897 1286.33 430.332C1294.56 392.5 1307.23 357.845 1323.21 327.387Z" fill="black"/>
<path fill-rule="evenodd" clip-rule="evenodd" d="M869.997 403.889C911.417 505.961 1067.51 535.412 1218.63 469.671C1281.24 442.437 1333.17 403.138 1369.58 359.188C1251.85 271.291 1104.24 219 943.999 219C932.701 219 921.465 219.26 910.297 219.774C864.289 279.676 846.932 347.049 869.997 403.889Z" fill="black"/>
<path fill-rule="evenodd" clip-rule="evenodd" d="M1112.46 734.21C1221.61 794.108 1372.51 722.629 1449.52 574.558C1463.99 546.719 1474.83 518.154 1482.15 489.723C1387.91 383.235 1259.93 305.499 1114.22 272C1091.5 296.497 1071.1 325.238 1054.25 357.649C977.249 505.72 1003.31 674.312 1112.46 734.21Z" fill="black"/>
<path d="M869.849 524.546C853.471 567.392 805.803 587.238 763.38 568.873C720.957 550.509 699.843 500.888 716.221 458.042C732.599 415.196 780.267 395.35 822.69 413.715C865.113 432.079 886.227 481.7 869.849 524.546Z" fill="#693502"/>
<path d="M869.849 524.546C853.471 567.392 805.803 587.238 763.38 568.873C720.957 550.509 699.843 500.888 716.221 458.042C732.599 415.196 780.267 395.35 822.69 413.715C865.113 432.079 886.227 481.7 869.849 524.546Z" stroke="black"/>
<path d="M1370.89 1257.97C1356.24 1296.28 1313.62 1314.02 1275.69 1297.6C1237.76 1281.18 1218.88 1236.81 1233.52 1198.5C1248.17 1160.19 1290.79 1142.45 1328.72 1158.87C1366.65 1175.29 1385.53 1219.66 1370.89 1257.97Z" fill="#693502"/>
<path d="M1370.89 1257.97C1356.24 1296.28 1313.62 1314.02 1275.69 1297.6C1237.76 1281.18 1218.88 1236.81 1233.52 1198.5C1248.17 1160.19 1290.79 1142.45 1328.72 1158.87C1366.65 1175.29 1385.53 1219.66 1370.89 1257.97Z" stroke="black"/>
<path d="M1183.88 916.4C1163.11 970.749 1108.53 998.474 1061.99 978.324C1015.44 958.175 994.549 897.782 1015.32 843.433C1036.1 789.084 1090.67 761.359 1137.22 781.508C1183.77 801.657 1204.66 862.05 1183.88 916.4Z" fill="black"/>
<path d="M1183.88 916.4C1163.11 970.749 1108.53 998.474 1061.99 978.324C1015.44 958.175 994.549 897.782 1015.32 843.433C1036.1 789.084 1090.67 761.359 1137.22 781.508C1183.77 801.657 1204.66 862.05 1183.88 916.4Z" stroke="black"/>
<path d="M918.002 1440.74C903.357 1479.05 860.735 1496.79 822.802 1480.37C784.869 1463.95 765.99 1419.58 780.634 1381.27C795.279 1342.96 837.901 1325.22 875.834 1341.64C913.767 1358.06 932.646 1402.43 918.002 1440.74Z" fill="#693502"/>
<path d="M918.002 1440.74C903.357 1479.05 860.735 1496.79 822.802 1480.37C784.869 1463.95 765.99 1419.58 780.634 1381.27C795.279 1342.96 837.901 1325.22 875.834 1341.64C913.767 1358.06 932.646 1402.43 918.002 1440.74Z" stroke="black"/>
<path d="M757.152 847.299C737.59 898.474 682.617 923.028 634.366 902.14C586.115 881.253 562.858 822.836 582.42 771.661C601.982 720.486 656.955 695.932 705.206 716.819C753.457 737.707 776.714 796.124 757.152 847.299Z" fill="black"/>
<path d="M757.152 847.299C737.59 898.474 682.617 923.028 634.366 902.14C586.115 881.253 562.858 822.836 582.42 771.661C601.982 720.486 656.955 695.932 705.206 716.819C753.457 737.707 776.714 796.124 757.152 847.299Z" stroke="black"/>
<path fill-rule="evenodd" clip-rule="evenodd" d="M255.941 1001.34C250.057 966.098 247 929.943 247 893.098C247 861.123 249.302 829.669 253.757 798.882C263.7 799.938 273.708 802.453 283.492 806.542C336.378 828.641 362.699 888.354 342.282 939.913C327.764 976.574 293.527 999.242 255.941 1001.34Z" fill="#693502"/>
<path fill-rule="evenodd" clip-rule="evenodd" d="M1623.86 1041.71C1634.99 993.9 1640.86 944.162 1640.86 893.098C1640.86 875.354 1640.15 857.771 1638.76 840.373C1597.83 839.172 1559.31 862.426 1543.68 901.912C1523.26 953.472 1549.58 1013.18 1602.47 1035.28C1609.52 1038.23 1616.68 1040.36 1623.86 1041.71Z" fill="#693502"/>
</svg>
